<svg width="45" height="46" viewBox="0 0 45 46" fill="none" xmlns="http://www.w3.org/2000/svg">
<path d="M20.311 3.26402H34.1651V4.67375H20.311V3.26402Z" fill="#2F37BA" fill-opacity="0.5"/>
<path d="M17.5401 3.26402H18.9255V4.67375H17.5401V3.26402Z" fill="#2F37BA" fill-opacity="0.5"/>
<path d="M14.7693 3.26402H16.1547V4.67375H14.7693V3.26402Z" fill="#2F37BA" fill-opacity="0.5"/>
<path d="M11.9985 3.26402H13.3839V4.67375H11.9985V3.26402Z" fill="#2F37BA" fill-opacity="0.5"/>
<path d="M2.99325 25.1147H4.37866V26.5244H2.99325V25.1147Z" fill="#2F37BA" fill-opacity="0.5"/>
<path d="M4.37866 11.7224H7.1495V13.1321H4.37866V11.7224Z" fill="#2F37BA" fill-opacity="0.5"/>
<path d="M2.99325 8.90291H5.76408V10.3126H2.99325V8.90291Z" fill="#2F37BA" fill-opacity="0.5"/>
<path d="M31.3943 13.1321H32.7797V14.5418H31.3943V13.1321Z" fill="#2F37BA" fill-opacity="0.5"/>
<path d="M34.1651 13.1321H35.5505V14.5418H34.1651V13.1321Z" fill="#2F37BA" fill-opacity="0.5"/>
<path d="M36.936 13.1321H38.3214V14.5418H36.936V13.1321Z" fill="#2F37BA" fill-opacity="0.5"/>
<path d="M18.2328 10.3126H23.7745V11.7224H18.2328V10.3126Z" fill="#2F37BA" fill-opacity="0.5"/>
<path d="M25.1599 10.3126H28.6235V11.7224H25.1599V10.3126Z" fill="#2F37BA" fill-opacity="0.5"/>
<path d="M18.2328 13.1321H21.0037V14.5418H18.2328V13.1321Z" fill="#2F37BA" fill-opacity="0.5"/>
<path d="M22.3891 13.1321H28.6235V14.5418H22.3891V13.1321Z" fill="#2F37BA" fill-opacity="0.5"/>
<path d="M25.1599 20.1807H32.087V21.5904H25.1599V20.1807Z" fill="#2F37BA" fill-opacity="0.5"/>
<path d="M23.7745 23.0001H27.9307V24.4099H23.7745V23.0001Z" fill="#2F37BA" fill-opacity="0.5"/>
<path d="M29.3162 23.0001H32.087V24.4099H29.3162V23.0001Z" fill="#2F37BA" fill-opacity="0.5"/>
<path d="M42.4776 4.67375H36.936V0.44458H9.22762V4.67375H2.30054C1.1529 4.67375 0.222412 5.62056 0.222412 6.78833V13.8369H1.60783V6.78833C1.60783 6.39907 1.91799 6.08347 2.30054 6.08347H9.22762V16.6564H7.8422V15.2467H0.222412V16.6564H6.45679V27.9342H0.222412V29.3439H7.8422V27.2293H10.1033L12.8741 28.639H17.5401C18.4175 28.6352 19.1982 28.0711 19.4907 27.2293H31.0625C29.4619 29.1897 28.9187 31.8288 29.6111 34.2779H2.30054C1.91799 34.2779 1.60783 33.9623 1.60783 33.5731V30.7536H0.222412V33.5731C0.222412 34.7408 1.1529 35.6876 2.30054 35.6876H16.8474V39.2119C16.8474 40.3797 15.9169 41.3265 14.7693 41.3265H11.3057V45.5557H33.4724V41.3265H30.0089C28.8612 41.3265 27.9307 40.3797 27.9307 39.2119V35.6876H30.157C31.7569 38.8795 35.2982 40.5391 38.7218 39.701C42.1451 38.8629 44.5574 35.7461 44.5557 32.1633V6.78833C44.5557 5.62056 43.6253 4.67375 42.4776 4.67375ZM21.6964 35.6876H23.0818V37.8318C23.0818 38.2211 22.7716 38.5367 22.3891 38.5367C22.0065 38.5367 21.6964 38.2211 21.6964 37.8318V35.6876ZM18.2328 39.2119V35.6876H20.311V37.8318C20.311 38.9996 21.2414 39.9464 22.3891 39.9464C23.5367 39.9464 24.4672 38.9996 24.4672 37.8318V35.6876H26.5453V39.2119C26.548 39.977 26.7977 40.7201 27.256 41.3265H17.5222C17.9805 40.7201 18.2301 39.977 18.2328 39.2119ZM32.087 42.7362V44.146H12.6912V42.7362H32.087ZM10.613 1.8543H35.5505V6.08347H10.613V1.8543ZM40.3995 10.3126V17.3612H36.936V19.5681L33.6801 17.3612H29.3162V10.3126H40.3995ZM18.9255 24.4099H17.1938V25.8196H18.2328V26.5244C18.2328 26.9137 17.9227 27.2293 17.5401 27.2293H13.2009L10.4301 25.8196H7.8422V18.0661H9.54489C10.2231 18.0658 10.8586 17.7295 11.2482 17.1647L13.0084 14.6051C13.2533 14.2503 13.3845 13.8266 13.3839 13.393V10.4014C14.6063 10.725 15.46 11.8469 15.462 13.1321V17.3612H21.6964C22.0789 17.3612 22.3891 17.6768 22.3891 18.0661C22.3891 18.4554 22.0789 18.771 21.6964 18.771H18.5792V20.1807H21.0037V20.8856C21.0037 21.2748 20.6935 21.5904 20.311 21.5904H17.1938V23.0001H19.6182V23.705C19.6182 24.0943 19.3081 24.4099 18.9255 24.4099ZM19.6182 25.8196V25.6991C20.4479 25.3993 21.0026 24.6009 21.0037 23.705V22.8797C21.8334 22.5799 22.3881 21.7814 22.3891 20.8856V20.0602C23.3439 19.7174 23.9169 18.7242 23.7457 17.7085C23.5746 16.6932 22.7091 15.9508 21.6964 15.9515H16.8474V13.1321C16.845 10.7972 14.9858 8.90532 12.6912 8.90291H11.9985V13.393C11.9988 13.5375 11.9552 13.6786 11.873 13.7967L10.613 15.6287V7.49319H35.5505V8.90291H27.9307V18.771H33.2647L35.5505 20.3218V24.5431C34.479 24.7458 33.4629 25.1811 32.572 25.8196H19.6182ZM36.936 38.5071C33.4927 38.5071 30.7016 35.667 30.7016 32.1633C30.7016 28.6597 33.4927 25.8196 36.936 25.8196C40.3792 25.8196 43.1703 28.6597 43.1703 32.1633C43.1663 35.6653 40.3775 38.5029 36.936 38.5071ZM43.1703 27.7228C41.748 25.6492 39.421 24.4126 36.936 24.4099V21.2628L38.3214 22.203V18.771H41.7849V8.90291H36.936V6.08347H42.4776C42.8602 6.08347 43.1703 6.39907 43.1703 6.78833V27.7228Z" fill="#2F37BA" fill-opacity="0.5"/>
<path d="M20.311 28.639V32.8682H24.4672V28.639H20.311ZM23.0818 31.4585H21.6964V30.0487H23.0818V31.4585Z" fill="#2F37BA" fill-opacity="0.5"/>
<path d="M4.37866 31.4585H8.53491V32.8682H4.37866V31.4585Z" fill="#2F37BA" fill-opacity="0.5"/>
<path d="M9.92033 30.0487H15.462V31.4585H9.92033V30.0487Z" fill="#2F37BA" fill-opacity="0.5"/>
<path d="M36.9356 28.8751C35.8563 28.2212 34.48 28.3836 33.5766 29.2719C32.5135 30.3533 32.5135 32.1068 33.5766 33.1882L36.9356 36.6038L40.2946 33.1862C41.3577 32.1048 41.3577 30.3512 40.2946 29.2699C39.3905 28.3822 38.0146 28.2205 36.9356 28.8751ZM39.3151 32.1881L36.9356 34.6128L34.5561 32.1915C34.2165 31.8484 34.0833 31.3466 34.2064 30.8761C34.3298 30.4056 34.6911 30.0384 35.1534 29.9128C35.6158 29.7875 36.1086 29.9231 36.4458 30.2686L36.9356 30.767L37.4254 30.2686C37.954 29.7548 38.7864 29.7548 39.3151 30.2686C39.837 30.7997 39.837 31.6605 39.3151 32.1915V32.1881Z" fill="#2F37BA" fill-opacity="0.5"/>
<path d="M2.99325 41.3265H4.37866V45.5557H2.99325V41.3265Z" fill="#2F37BA" fill-opacity="0.5"/>
<path d="M0.222412 39.9168H1.60783V45.5557H0.222412V39.9168Z" fill="#2F37BA" fill-opacity="0.5"/>
<path d="M5.76408 42.7362H7.1495V45.5557H5.76408V42.7362Z" fill="#2F37BA" fill-opacity="0.5"/>
</svg>
