<svg width="45" height="46" viewBox="0 0 45 46" fill="none" xmlns="http://www.w3.org/2000/svg">
<path d="M38.8353 7.45765L33.1149 15.2189H35.9751V26.1329H37.4052V13.7637H35.9751L38.8353 9.88346L41.6955 13.7637H40.2654V31.2261H41.6955V15.2189H44.5557L38.8353 7.45765Z" fill="#2F37BA" fill-opacity="0.5"/>
<path d="M3.08263 31.9537H4.51273V14.4913H3.08263L5.94284 10.6111L8.80306 14.4913H7.37295V26.1329H8.80306V15.9465H11.6633L5.94284 8.18525L0.222412 15.9465H3.08263V31.9537Z" fill="#2F37BA" fill-opacity="0.5"/>
<path d="M36.6723 36.1411C37.9773 35.2206 38.8353 33.6876 38.8353 31.9537C38.8353 29.1459 36.59 26.8605 33.8299 26.8605C33.5868 26.8605 33.3494 26.8845 33.1149 26.9187V23.9501H34.545V19.5846H28.1095V13.6197L30.6258 13.0507C32.9333 12.529 34.545 10.4845 34.545 8.07904V2.84979C34.545 1.64634 33.5825 0.666992 32.3998 0.666992C31.2171 0.666992 30.2547 1.64634 30.2547 2.84979V7.43802C30.2547 7.79527 30.003 8.09723 29.6569 8.15544L26.4728 8.69531C27.0512 7.86512 27.3945 6.85376 27.3945 5.76018C27.3945 2.95165 25.1492 0.666992 22.3891 0.666992C19.629 0.666992 17.3837 2.95165 17.3837 5.76018C17.3837 6.85376 17.7269 7.86512 18.3054 8.69531L15.1213 8.15544C14.7752 8.0965 14.5235 7.79455 14.5235 7.43802V2.84979C14.5235 1.64634 13.561 0.666992 12.3783 0.666992C11.1956 0.666992 10.2332 1.64634 10.2332 2.84979V8.07904C10.2332 10.4845 11.8449 12.529 14.1524 13.0507L16.6686 13.6197V19.5846H10.2332V23.9501H11.6633V26.9187C11.4287 26.8845 11.1913 26.8605 10.9482 26.8605C8.18811 26.8605 5.94284 29.1459 5.94284 31.9537C5.94284 33.6876 6.80091 35.2206 8.10588 36.1411C5.1713 37.3038 3.08263 40.2025 3.08263 43.5953V45.7781H41.6955V43.5953C41.6955 40.2025 39.6069 37.3038 36.6723 36.1411ZM37.4052 31.9537C37.4052 33.9597 35.8013 35.5917 33.8299 35.5917C31.8585 35.5917 30.2547 33.9597 30.2547 31.9537C30.2547 29.9477 31.8585 28.3157 33.8299 28.3157C35.8013 28.3157 37.4052 29.9477 37.4052 31.9537ZM23.0755 15.6737L22.3891 16.3729L21.7026 15.6744L22.1503 10.8417C22.2296 10.8446 22.3083 10.8534 22.3891 10.8534C22.4699 10.8534 22.5485 10.8446 22.6279 10.841L23.0755 15.6737ZM22.3891 2.12219C24.3605 2.12219 25.9643 3.75419 25.9643 5.76018C25.9643 7.76617 24.3605 9.39817 22.3891 9.39817C20.4177 9.39817 18.8138 7.76617 18.8138 5.76018C18.8138 3.75419 20.4177 2.12219 22.3891 2.12219ZM14.4627 11.6304C12.8145 11.2579 11.6633 9.79763 11.6633 8.07904V2.84979C11.6633 2.44888 11.9843 2.12219 12.3783 2.12219C12.7723 2.12219 13.0934 2.44888 13.0934 2.84979V7.43802C13.0934 8.50978 13.847 9.41491 14.886 9.59099L20.738 10.5834L20.216 16.2194L22.3898 18.4313L24.5636 16.2194L24.0416 10.5834L29.8936 9.59099C30.9311 9.41491 31.6848 8.50905 31.6848 7.43802V2.84979C31.6848 2.44888 32.0058 2.12219 32.3998 2.12219C32.7938 2.12219 33.1149 2.44888 33.1149 2.84979V8.07904C33.1149 9.79763 31.9637 11.2579 30.3155 11.6304L26.6794 12.4526V19.5846H18.0988V12.4526L14.4627 11.6304ZM11.6633 21.0397H33.1149V22.4949H11.6633V21.0397ZM13.0934 23.9501H31.6848V27.3589C29.9965 28.1782 28.8246 29.9274 28.8246 31.9537C28.8246 33.6861 29.6812 35.2177 30.984 36.1381C29.9022 36.566 28.9204 37.2332 28.1081 38.1172C27.3115 37.2565 26.3326 36.5769 25.2314 36.1411C26.5364 35.2206 27.3945 33.6876 27.3945 31.9537C27.3945 29.1459 25.1492 26.8605 22.3891 26.8605C19.629 26.8605 17.3837 29.1459 17.3837 31.9537C17.3837 33.6876 18.2418 35.2206 19.5467 36.1411C18.4463 36.5776 17.4667 37.2572 16.6701 38.1172C15.8578 37.2332 14.876 36.566 13.7941 36.1381C15.097 35.2177 15.9536 33.6861 15.9536 31.9537C15.9536 29.9274 14.7816 28.1789 13.0934 27.3589V23.9501ZM18.8138 31.9537C18.8138 29.9477 20.4177 28.3157 22.3891 28.3157C24.3605 28.3157 25.9643 29.9477 25.9643 31.9537C25.9643 33.9597 24.3605 35.5917 22.3891 35.5917C20.4177 35.5917 18.8138 33.9597 18.8138 31.9537ZM7.37295 31.9537C7.37295 29.9477 8.97682 28.3157 10.9482 28.3157C12.9196 28.3157 14.5235 29.9477 14.5235 31.9537C14.5235 33.9597 12.9196 35.5917 10.9482 35.5917C8.97682 35.5917 7.37295 33.9597 7.37295 31.9537ZM8.088 44.3229V39.9573H6.6579V44.3229H4.51273V43.5953C4.51273 39.9842 7.40012 37.0469 10.9482 37.0469C12.8195 37.0469 14.5471 37.8618 15.7713 39.2865C14.9854 40.5321 14.5235 42.0084 14.5235 43.5953V44.3229H8.088ZM26.6794 44.3229V39.9573H25.2493V44.3229H19.5289V39.9573H18.0988V44.3229H15.9536V43.5953C15.9536 39.9842 18.841 37.0469 22.3891 37.0469C25.9372 37.0469 28.8246 39.9842 28.8246 43.5953V44.3229H26.6794ZM40.2654 44.3229H38.1203V39.9573H36.6902V44.3229H30.2547V43.5953C30.2547 42.0084 29.7927 40.5321 29.0069 39.2865C30.2311 37.8618 31.9586 37.0469 33.8299 37.0469C37.378 37.0469 40.2654 39.9842 40.2654 43.5953V44.3229Z" fill="#2F37BA" fill-opacity="0.5"/>
<path d="M40.2654 32.6813H41.6955V34.1365H40.2654V32.6813Z" fill="#2F37BA" fill-opacity="0.5"/>
<path d="M40.2654 35.5917H41.6955V37.0469H40.2654V35.5917Z" fill="#2F37BA" fill-opacity="0.5"/>
<path d="M3.08263 33.4089H4.51273V34.8641H3.08263V33.4089Z" fill="#2F37BA" fill-opacity="0.5"/>
<path d="M3.08263 36.3193H4.51273V37.7745H3.08263V36.3193Z" fill="#2F37BA" fill-opacity="0.5"/>
</svg>
