<svg width="42" height="46" viewBox="0 0 42 46" fill="none" xmlns="http://www.w3.org/2000/svg">
<path d="M3.83109 38.7892H16.8085V40.3395C16.4828 40.4175 16.1926 40.5997 15.9832 40.8575L14.1511 43.113C13.7847 43.5644 13.7133 44.1827 13.9676 44.7036C14.2218 45.2244 14.7567 45.5557 15.3435 45.5557H27.4339C28.0207 45.5557 28.5556 45.2244 28.8098 44.7036C29.0641 44.1827 28.9927 43.5644 28.6263 43.113L26.7942 40.8575C26.5847 40.5999 26.2945 40.4177 25.9689 40.3395V38.7892H38.9463C40.6327 38.7892 41.9998 37.4428 41.9998 35.7819V14.7307C41.9998 13.0698 40.6327 11.7234 38.9463 11.7234H35.2821L34.9997 11.3061C34.8499 11.1089 34.6145 10.9928 34.3645 10.9928C34.1145 10.9928 33.8792 11.1089 33.7294 11.3061L33.45 11.7234H29.0224V2.7014C28.9727 1.41095 27.8733 0.402769 26.5629 0.445915H7.05405C5.74357 0.402769 4.64416 1.41095 4.59446 2.7014V11.7234H3.83109C2.14469 11.7234 0.777588 13.0698 0.777588 14.7307V35.7819C0.777588 37.4428 2.14469 38.7892 3.83109 38.7892ZM27.44 44.052H15.3435L17.1756 41.7965H25.6025L27.44 44.052ZM24.4422 40.2929H18.3352V38.7892H24.4422V40.2929ZM38.9463 37.2856H3.83109C2.98789 37.2856 2.30434 36.6124 2.30434 35.7819V32.7746H40.4731V35.7819C40.4731 36.6124 39.7895 37.2856 38.9463 37.2856ZM6.12121 13.227C6.12121 12.8118 6.46298 12.4752 6.88458 12.4752H26.7323C27.1539 12.4752 27.4957 12.8118 27.4957 13.227V16.9862H6.12121V13.227ZM27.4957 11.1099C27.2512 11.0208 26.993 10.974 26.7323 10.9715H6.88458C6.62394 10.974 6.36569 11.0208 6.12121 11.1099V7.96421C6.17291 7.50551 6.58728 7.17155 7.05405 7.21238H26.5629C27.0296 7.17155 27.444 7.50551 27.4957 7.96421V11.1099ZM6.12121 18.4898H27.4957V31.2709H6.12121V18.4898ZM32.4309 13.227L30.6752 15.8171C30.5238 16.0405 30.505 16.3266 30.6258 16.5674C30.7466 16.8083 30.9887 16.9673 31.2609 16.9847C31.5331 17.0021 31.794 16.8751 31.9454 16.6516L34.3661 13.0767L36.7844 16.6493C36.9358 16.8728 37.1967 16.9998 37.4689 16.9824C37.7411 16.9651 37.9832 16.806 38.104 16.5652C38.2249 16.3243 38.2061 16.0383 38.0547 15.8148L36.3012 13.227H38.9463C39.7895 13.227 40.4731 13.9002 40.4731 14.7307V31.2709H29.0224V13.227H32.4309ZM7.05405 1.94957H26.5629C27.0296 1.90874 27.444 2.2427 27.4957 2.7014V5.87939C27.198 5.76653 26.8818 5.70868 26.5629 5.70872H7.05405C6.7351 5.70868 6.41887 5.76653 6.12121 5.87939V2.7014C6.17291 2.2427 6.58728 1.90874 7.05405 1.94957ZM3.83109 13.227H4.59446V31.2709H2.30434V14.7307C2.30434 13.9002 2.98789 13.227 3.83109 13.227Z" fill="#2F37BA" fill-opacity="0.5"/>
<path d="M8.95333 14.1969L8.83883 14.1067C8.79629 14.0782 8.75008 14.0555 8.70142 14.039C8.65817 14.0173 8.61185 14.0021 8.56401 13.9939C8.41526 13.9632 8.26047 13.979 8.12126 14.039C8.02878 14.0772 7.94359 14.1306 7.86934 14.1969C7.72998 14.3411 7.65093 14.5317 7.64796 14.7307C7.64927 14.7812 7.65437 14.8314 7.66323 14.8811C7.67154 14.9282 7.68698 14.9738 7.70903 15.0164C7.72572 15.0643 7.74882 15.1099 7.77774 15.1518L7.86934 15.2645C7.94359 15.3309 8.02878 15.3843 8.12126 15.4224C8.21183 15.4646 8.3112 15.4852 8.41134 15.4826C8.46254 15.4813 8.51357 15.4762 8.56401 15.4675C8.61185 15.4593 8.65817 15.4441 8.70142 15.4224C8.75008 15.406 8.79629 15.3832 8.83883 15.3547C8.87882 15.327 8.91706 15.2969 8.95333 15.2645C9.0927 15.1204 9.17175 14.9298 9.17471 14.7307C9.17351 14.6325 9.15276 14.5354 9.11364 14.445C9.07492 14.354 9.02071 14.2701 8.95333 14.1969Z" fill="#2F37BA" fill-opacity="0.5"/>
<path d="M12.0067 14.1969C11.9337 14.129 11.8482 14.0754 11.7548 14.039C11.6156 13.979 11.4608 13.9632 11.3121 13.9939C11.2642 14.0021 11.2179 14.0173 11.1747 14.039C11.126 14.0555 11.0798 14.0782 11.0372 14.1067L10.9227 14.1969C10.8537 14.2688 10.7993 14.353 10.7624 14.445C10.7233 14.5354 10.7026 14.6325 10.7014 14.7307C10.7043 14.9298 10.7834 15.1204 10.9227 15.2645C10.959 15.2969 10.9972 15.327 11.0372 15.3547C11.0798 15.3832 11.126 15.406 11.1747 15.4224C11.2179 15.4441 11.2642 15.4593 11.3121 15.4675C11.3625 15.4763 11.4135 15.4813 11.4647 15.4826C11.5645 15.4814 11.663 15.4609 11.7548 15.4224C11.8482 15.3861 11.9337 15.3325 12.0067 15.2645L12.0983 15.1518C12.1272 15.1099 12.1504 15.0643 12.167 15.0164C12.1891 14.9738 12.2045 14.9282 12.2128 14.8811C12.2217 14.8314 12.2268 14.7812 12.2281 14.7307C12.2307 14.6321 12.2098 14.5342 12.167 14.445C12.1283 14.354 12.0741 14.2701 12.0067 14.1969Z" fill="#2F37BA" fill-opacity="0.5"/>
<path d="M15.2207 14.445C15.2041 14.3971 15.1809 14.3516 15.152 14.3097C15.1239 14.2703 15.0933 14.2326 15.0604 14.1969L14.9459 14.1067C14.9034 14.0782 14.8572 14.0555 14.8085 14.039C14.7653 14.0173 14.7189 14.0021 14.6711 13.9939C14.4199 13.9482 14.1617 14.0237 13.9764 14.1969C13.9436 14.2326 13.913 14.2703 13.8848 14.3097C13.8559 14.3516 13.8328 14.3971 13.8161 14.445C13.7941 14.4876 13.7786 14.5332 13.7703 14.5803C13.7615 14.63 13.7564 14.6803 13.7551 14.7307C13.7563 14.829 13.777 14.926 13.8161 15.0164C13.853 15.1084 13.9074 15.1926 13.9764 15.2645C14.2775 15.5553 14.7594 15.5553 15.0604 15.2645C15.1294 15.1926 15.1838 15.1084 15.2207 15.0164C15.2599 14.926 15.2806 14.829 15.2818 14.7307C15.2805 14.6803 15.2754 14.63 15.2665 14.5803C15.2582 14.5332 15.2428 14.4876 15.2207 14.445Z" fill="#2F37BA" fill-opacity="0.5"/>
<path d="M8.95333 8.93411L8.83883 8.84389C8.79629 8.81542 8.75008 8.79266 8.70142 8.77623C8.65817 8.75451 8.61185 8.7393 8.56401 8.73112C8.41526 8.70038 8.26047 8.71615 8.12126 8.77623C8.02878 8.81437 7.94359 8.86776 7.86934 8.93411C7.72998 9.07827 7.65093 9.26888 7.64796 9.46791C7.64927 9.51834 7.65437 9.56859 7.66323 9.61828C7.67154 9.66539 7.68698 9.711 7.70903 9.7536C7.72572 9.80153 7.74882 9.84704 7.77774 9.88893L7.86934 10.0017C7.94359 10.0681 8.02878 10.1215 8.12126 10.1596C8.21183 10.2017 8.3112 10.2223 8.41134 10.2197C8.46254 10.2185 8.51357 10.2134 8.56401 10.2047C8.61185 10.1965 8.65817 10.1813 8.70142 10.1596C8.75008 10.1432 8.79629 10.1204 8.83883 10.0919C8.87882 10.0642 8.91706 10.034 8.95333 10.0017C9.0927 9.85755 9.17175 9.66694 9.17471 9.46791C9.17351 9.36966 9.15276 9.2726 9.11364 9.18222C9.07492 9.09114 9.02071 9.00724 8.95333 8.93411Z" fill="#2F37BA" fill-opacity="0.5"/>
<path d="M12.0067 8.93411C11.9337 8.86615 11.8482 8.81256 11.7548 8.77623C11.6156 8.71615 11.4608 8.70038 11.3121 8.73112C11.2642 8.7393 11.2179 8.75451 11.1747 8.77623C11.126 8.79266 11.0798 8.81542 11.0372 8.84389L10.9227 8.93411C10.8537 9.00599 10.7993 9.09021 10.7624 9.18222C10.7233 9.2726 10.7026 9.36966 10.7014 9.46791C10.7043 9.66694 10.7834 9.85755 10.9227 10.0017C10.959 10.034 10.9972 10.0642 11.0372 10.0919C11.0798 10.1204 11.126 10.1432 11.1747 10.1596C11.2179 10.1813 11.2642 10.1965 11.3121 10.2047C11.3625 10.2134 11.4135 10.2185 11.4647 10.2197C11.5645 10.2186 11.663 10.1981 11.7548 10.1596C11.8482 10.1233 11.9337 10.0697 12.0067 10.0017L12.0983 9.88894C12.1272 9.84704 12.1504 9.80153 12.167 9.75361C12.1891 9.71101 12.2045 9.66539 12.2128 9.61828C12.2217 9.5686 12.2268 9.51834 12.2281 9.46791C12.2307 9.36928 12.2098 9.27143 12.167 9.18222C12.1283 9.09114 12.0741 9.00724 12.0067 8.93411Z" fill="#2F37BA" fill-opacity="0.5"/>
<path d="M15.2207 9.18225C15.2041 9.13433 15.1809 9.08882 15.152 9.04692C15.1239 9.00753 15.0933 8.96987 15.0604 8.93415L14.9459 8.84393C14.9034 8.81545 14.8572 8.79269 14.8085 8.77626C14.7653 8.75454 14.7189 8.73934 14.6711 8.73115C14.4199 8.68549 14.1617 8.76094 13.9764 8.93415C13.9436 8.96987 13.913 9.00753 13.8848 9.04692C13.8559 9.08882 13.8328 9.13433 13.8161 9.18225C13.7941 9.22485 13.7786 9.27047 13.7703 9.31758C13.7615 9.36726 13.7564 9.41752 13.7551 9.46795C13.7563 9.56619 13.777 9.66325 13.8161 9.75364C13.853 9.84565 13.9074 9.92986 13.9764 10.0017C14.2775 10.2925 14.7594 10.2925 15.0604 10.0017C15.1294 9.92986 15.1838 9.84565 15.2207 9.75364C15.2599 9.66325 15.2806 9.56619 15.2818 9.46795C15.2805 9.41752 15.2754 9.36726 15.2665 9.31758C15.2582 9.27047 15.2428 9.22485 15.2207 9.18225Z" fill="#2F37BA" fill-opacity="0.5"/>
<path d="M7.70903 4.49081C7.72572 4.53873 7.74882 4.58424 7.77774 4.62614L7.86934 4.73891C7.94359 4.80527 8.02878 4.85866 8.12126 4.8968C8.21183 4.93894 8.3112 4.95954 8.41134 4.95694C8.46254 4.95566 8.51357 4.95064 8.56401 4.94191C8.61185 4.93372 8.65817 4.91852 8.70142 4.8968C8.75008 4.88037 8.79629 4.85761 8.83883 4.82913C8.87882 4.80138 8.91706 4.77125 8.95333 4.73891C9.0927 4.59476 9.17175 4.40415 9.17471 4.20512C9.17351 4.10687 9.15276 4.00981 9.11364 3.91942C9.07492 3.82834 9.02071 3.74444 8.95333 3.67132L8.83883 3.5811C8.79629 3.55262 8.75008 3.52986 8.70142 3.51343C8.65817 3.49171 8.61185 3.47651 8.56401 3.46832C8.41526 3.43758 8.26047 3.45335 8.12126 3.51343C8.02878 3.55157 7.94359 3.60497 7.86934 3.67132C7.72998 3.81547 7.65093 4.00609 7.64796 4.20512C7.64927 4.25554 7.65437 4.3058 7.66323 4.35548C7.67154 4.40259 7.68698 4.44821 7.70903 4.49081Z" fill="#2F37BA" fill-opacity="0.5"/>
<path d="M11.0372 4.82913C11.0798 4.85761 11.126 4.88037 11.1747 4.8968C11.2179 4.91852 11.2642 4.93372 11.3121 4.94191C11.3625 4.95064 11.4135 4.95566 11.4647 4.95694C11.5645 4.95576 11.663 4.93532 11.7548 4.8968C11.8482 4.86047 11.9337 4.80688 12.0067 4.73891L12.0983 4.62614C12.1272 4.58424 12.1504 4.53873 12.167 4.49081C12.1891 4.44821 12.2045 4.40259 12.2128 4.35548C12.2217 4.3058 12.2268 4.25554 12.2281 4.20512C12.2307 4.10649 12.2098 4.00863 12.167 3.91942C12.1283 3.82834 12.0741 3.74444 12.0067 3.67132C11.9337 3.60335 11.8482 3.54976 11.7548 3.51343C11.6156 3.45335 11.4608 3.43758 11.3121 3.46832C11.2642 3.47651 11.2179 3.49171 11.1747 3.51343C11.126 3.52986 11.0798 3.55262 11.0372 3.5811L10.9227 3.67132C10.8537 3.7432 10.7993 3.82741 10.7624 3.91942C10.7233 4.00981 10.7026 4.10687 10.7014 4.20512C10.7043 4.40415 10.7834 4.59476 10.9227 4.73891C10.959 4.77125 10.9972 4.80138 11.0372 4.82913Z" fill="#2F37BA" fill-opacity="0.5"/>
<path d="M13.9764 4.73889C14.2775 5.02965 14.7594 5.02965 15.0604 4.73889C15.1294 4.66701 15.1838 4.58279 15.2207 4.49078C15.2599 4.4004 15.2806 4.30333 15.2818 4.20509C15.2805 4.15466 15.2754 4.1044 15.2665 4.05472C15.2582 4.00761 15.2428 3.96199 15.2207 3.91939C15.2041 3.87147 15.1809 3.82596 15.152 3.78406C15.1239 3.74467 15.0933 3.70701 15.0604 3.67129L14.9459 3.58107C14.9034 3.55259 14.8572 3.52984 14.8085 3.5134C14.7653 3.49169 14.7189 3.47648 14.6711 3.46829C14.4199 3.42263 14.1617 3.49809 13.9764 3.67129C13.9436 3.70701 13.913 3.74467 13.8848 3.78406C13.8559 3.82596 13.8328 3.87147 13.8161 3.91939C13.7941 3.96199 13.7786 4.00761 13.7703 4.05472C13.7615 4.1044 13.7564 4.15466 13.7551 4.20509C13.7563 4.30333 13.777 4.4004 13.8161 4.49078C13.853 4.58279 13.9074 4.66701 13.9764 4.73889Z" fill="#2F37BA" fill-opacity="0.5"/>
<path d="M10.7015 22.249C11.529 22.249 12.2282 22.7655 12.2282 23.3768C12.2282 23.792 12.57 24.1286 12.9916 24.1286C13.4132 24.1286 13.755 23.792 13.755 23.3768C13.6865 22.108 12.7361 21.0547 11.4648 20.8386V20.7454C11.4648 20.3301 11.1231 19.9935 10.7015 19.9935C10.2799 19.9935 9.93809 20.3301 9.93809 20.7454V20.8386C8.66687 21.0547 7.71645 22.108 7.64796 23.3768C7.76173 24.9298 9.12347 26.1033 10.7015 26.0082C11.529 26.0082 12.2282 26.5247 12.2282 27.1359C12.2282 27.7471 11.529 28.2636 10.7015 28.2636C9.87397 28.2636 9.17472 27.7471 9.17472 27.1359C9.17472 26.7207 8.83294 26.3841 8.41134 26.3841C7.98974 26.3841 7.64796 26.7207 7.64796 27.1359C7.71645 28.4046 8.66687 29.458 9.93809 29.6741V29.7673C9.93809 30.1825 10.2799 30.5191 10.7015 30.5191C11.1231 30.5191 11.4648 30.1825 11.4648 29.7673V29.6741C12.7361 29.458 13.6865 28.4046 13.755 27.1359C13.6412 25.5829 12.2795 24.4094 10.7015 24.5045C9.87397 24.5045 9.17472 23.988 9.17472 23.3768C9.17472 22.7655 9.87397 22.249 10.7015 22.249Z" fill="#2F37BA" fill-opacity="0.5"/>
<path d="M24.4424 19.9935H17.5721C16.7289 19.9935 16.0453 20.6667 16.0453 21.4972V25.2563C16.0453 26.0868 16.7289 26.76 17.5721 26.76H24.4424C25.2856 26.76 25.9692 26.0868 25.9692 25.2563V21.4972C25.9692 20.6667 25.2856 19.9935 24.4424 19.9935ZM17.5721 25.2563V21.4972H24.4424V25.2563H17.5721Z" fill="#2F37BA" fill-opacity="0.5"/>
<path d="M19.0988 28.2636H16.8087C16.3871 28.2636 16.0453 28.6003 16.0453 29.0155C16.0453 29.4307 16.3871 29.7673 16.8087 29.7673H19.0988C19.5204 29.7673 19.8622 29.4307 19.8622 29.0155C19.8622 28.6003 19.5204 28.2636 19.0988 28.2636Z" fill="#2F37BA" fill-opacity="0.5"/>
<path d="M25.2051 28.2636H22.1516C21.73 28.2636 21.3883 28.6003 21.3883 29.0155C21.3883 29.4307 21.73 29.7673 22.1516 29.7673H25.2051C25.6267 29.7673 25.9685 29.4307 25.9685 29.0155C25.9685 28.6003 25.6267 28.2636 25.2051 28.2636Z" fill="#2F37BA" fill-opacity="0.5"/>
<path d="M34.3664 26.0082C33.9448 26.0082 33.603 26.3448 33.603 26.76V29.7673C33.603 30.1825 33.9448 30.5192 34.3664 30.5192C34.788 30.5192 35.1298 30.1825 35.1298 29.7673V26.76C35.1298 26.3448 34.788 26.0082 34.3664 26.0082Z" fill="#2F37BA" fill-opacity="0.5"/>
<path d="M31.9471 27.1772L34.3655 23.6023L36.7839 27.175C36.9352 27.3985 37.1962 27.5254 37.4683 27.5081C37.7405 27.4907 37.9826 27.3316 38.1035 27.0908C38.2243 26.85 38.2055 26.5639 38.0541 26.3405L35.0006 21.8295C34.8509 21.6323 34.6155 21.5162 34.3655 21.5162C34.1155 21.5162 33.8801 21.6323 33.7304 21.8295L30.6769 26.3405C30.4429 26.6859 30.5376 27.1528 30.8883 27.3832C31.2391 27.6137 31.7131 27.5204 31.9471 27.175V27.1772Z" fill="#2F37BA" fill-opacity="0.5"/>
<path d="M34.3664 19.9935C34.788 19.9935 35.1298 19.6569 35.1298 19.2417V16.2344C35.1298 15.8191 34.788 15.4825 34.3664 15.4825C33.9448 15.4825 33.603 15.8191 33.603 16.2344V19.2417C33.603 19.6569 33.9448 19.9935 34.3664 19.9935Z" fill="#2F37BA" fill-opacity="0.5"/>
<path d="M33.603 5.70875V8.71607C33.603 9.13129 33.9448 9.4679 34.3664 9.4679C34.788 9.4679 35.1298 9.13129 35.1298 8.71607V5.70875C35.1298 5.29352 34.788 4.95692 34.3664 4.95692C33.9448 4.95692 33.603 5.29352 33.603 5.70875Z" fill="#2F37BA" fill-opacity="0.5"/>
<path d="M31.9477 6.12665L34.3661 2.5517L36.7845 6.12439C37.0185 6.46986 37.4925 6.5631 37.8433 6.33265C38.1941 6.1022 38.2887 5.63533 38.0547 5.28986L35.0012 0.778883C34.8515 0.581712 34.6161 0.465619 34.3661 0.465619C34.1161 0.465619 33.8807 0.581712 33.731 0.778883L30.6775 5.28986C30.5261 5.51334 30.5073 5.79937 30.6281 6.04021C30.749 6.28105 30.9911 6.44011 31.2633 6.45748C31.5355 6.47484 31.7964 6.34787 31.9477 6.12439V6.12665Z" fill="#2F37BA" fill-opacity="0.5"/>
</svg>
