<svg width="50" height="43" viewBox="0 0 50 43" fill="none" xmlns="http://www.w3.org/2000/svg">
<path d="M47.3909 8.22478H39.0552V4.91502C39.0524 2.63125 37.1881 0.780568 34.8874 0.777832H26.5517C24.251 0.780568 22.3866 2.63125 22.3839 4.91502V8.22478H19.8832C19.4228 8.22478 19.0496 8.59523 19.0496 9.05221C19.0496 9.5092 19.4228 9.87965 19.8832 9.87965H47.3909C47.8512 9.87965 48.2244 10.2501 48.2244 10.7071V22.2912C48.2244 22.7482 47.8512 23.1187 47.3909 23.1187H44.8902V19.8089C44.8902 18.438 43.7706 17.3266 42.3895 17.3266H37.3881C36.007 17.3266 34.8874 18.438 34.8874 19.8089V23.1187H26.5517V19.8089C26.5517 18.438 25.4321 17.3266 24.051 17.3266H19.0496C18.5893 17.3266 18.2161 17.6971 18.2161 18.154C18.2161 18.611 18.5893 18.9815 19.0496 18.9815H24.051C24.5114 18.9815 24.8846 19.3519 24.8846 19.8089V23.1187H22.3839V21.4638C22.3839 21.0068 22.0107 20.6363 21.5503 20.6363C21.09 20.6363 20.7167 21.0068 20.7167 21.4638V23.1187H19.6831C19.2228 23.1187 18.8496 23.4891 18.8496 23.9461C18.8496 24.4031 19.2228 24.7735 19.6831 24.7735H24.8846V26.4284C24.8846 26.8854 24.5114 27.2559 24.051 27.2559H20.9835C20.5231 27.2559 20.1499 27.6263 20.1499 28.0833C20.1499 28.5403 20.5231 28.9107 20.9835 28.9107H24.051C25.4321 28.9107 26.5517 27.7994 26.5517 26.4284V24.7735H34.8874V26.4284C34.8874 27.7994 36.007 28.9107 37.3881 28.9107H40.7223C42.1034 28.9107 43.223 27.7994 43.223 26.4284V24.7735H46.5573V34.7028C46.5573 35.6168 45.8109 36.3577 44.8902 36.3577H20.7167C20.2564 36.3577 19.8832 36.7281 19.8832 37.1851C19.8832 37.6421 20.2564 38.0126 20.7167 38.0126H44.8902C46.7316 38.0126 48.2244 36.5307 48.2244 34.7028V24.6213C49.22 24.2719 49.8872 23.3394 49.8915 22.2912V10.7071C49.8915 9.33615 48.7719 8.22478 47.3909 8.22478ZM24.051 8.22478V4.91502C24.051 3.54408 25.1706 2.43271 26.5517 2.43271H34.8874C36.2685 2.43271 37.3881 3.54408 37.3881 4.91502V8.22478H24.051ZM41.5559 26.4284C41.5559 26.8854 41.1827 27.2559 40.7223 27.2559H37.3881C36.9277 27.2559 36.5545 26.8854 36.5545 26.4284V24.7735H41.5559V26.4284ZM40.7223 23.1187V21.4638C40.7223 21.0068 40.3491 20.6363 39.8888 20.6363C39.4284 20.6363 39.0552 21.0068 39.0552 21.4638V23.1187H36.5545V19.8089C36.5545 19.3519 36.9277 18.9815 37.3881 18.9815H42.3895C42.8498 18.9815 43.223 19.3519 43.223 19.8089V23.1187H40.7223Z" fill="#2F37BA" fill-opacity="0.5"/>
<path d="M44.0572 34.7028C44.5176 34.7028 44.8908 34.3323 44.8908 33.8753V31.393C44.8908 30.936 44.5176 30.5656 44.0572 30.5656C43.5968 30.5656 43.2236 30.936 43.2236 31.393V33.0479H41.5565C41.0961 33.0479 40.7229 33.4184 40.7229 33.8753C40.7229 34.3323 41.0961 34.7028 41.5565 34.7028H44.0572Z" fill="#2F37BA" fill-opacity="0.5"/>
<path d="M17.4467 9.41878L17.8585 6.15288C17.9771 5.21062 17.6823 4.26317 17.049 3.55144C16.4158 2.83971 15.505 2.43227 14.5484 2.43272H10.714C10.2536 2.43272 9.88044 2.80317 9.88044 3.26015C9.88044 3.71714 10.2536 4.08759 10.714 4.08759H14.5484C15.0265 4.08773 15.4815 4.2916 15.7979 4.64742C16.1143 5.00324 16.2615 5.47676 16.2022 5.94767L15.7929 9.21771C15.7695 9.40011 15.686 9.5697 15.5554 9.7001L12.9646 12.2652L9.88044 15.3267L4.20553 9.69597C4.07493 9.56556 3.99142 9.39597 3.96796 9.21357L3.55701 5.94767C3.49769 5.47647 3.64515 5.00268 3.96188 4.6468C4.27861 4.29092 4.73409 4.08725 5.21247 4.08759H6.54618C7.00655 4.08759 7.37975 3.71714 7.37975 3.26015C7.37975 2.80317 7.00655 2.43272 6.54618 2.43272H5.21247C4.25549 2.43263 3.34459 2.84072 2.71157 3.55316C2.07855 4.26559 1.78443 5.21368 1.90405 6.15619L2.31583 9.42208C2.38541 9.96951 2.63608 10.4785 3.02853 10.8693L4.65148 12.4803L0.195241 32.3661C-0.0561759 33.472 0.28295 34.6285 1.09299 35.4276L7.52312 41.8105C8.8261 43.1003 10.9348 43.1003 12.2378 41.8105L18.6279 35.4682C19.4607 34.6371 19.791 33.432 19.4973 32.2966L14.4834 13.1009L16.734 10.8668C17.1266 10.4758 17.3773 9.9665 17.4467 9.41878ZM3.8596 23.6507L13.1197 14.4587L14.0074 17.857L2.62259 29.1523L3.8596 23.6507ZM8.70178 16.4992L4.52895 20.6413L6.04604 13.8638L8.70178 16.4992ZM1.82236 32.7244L1.94906 32.1617L14.4892 19.7146L15.377 23.112L3.21192 35.1877L2.27165 34.2543C1.8681 33.8542 1.69861 33.2771 1.82236 32.7244ZM16.7499 28.3688L6.54618 38.4974L4.39058 36.3577L15.8621 24.9705L16.7499 28.3688ZM17.4492 34.2949L11.0591 40.6372C10.4081 41.2832 9.3528 41.2832 8.70178 40.6372L7.72484 39.6674L17.235 30.2272L17.8835 32.7095C18.0303 33.277 17.8653 33.8793 17.4492 34.2949Z" fill="#2F37BA" fill-opacity="0.5"/>
</svg>
