<svg width="33" height="44" viewBox="0 0 33 44" fill="none" xmlns="http://www.w3.org/2000/svg">
<path d="M16.3892 29.1943C13.8091 29.1943 11.2869 28.4245 9.14158 26.9823C6.99626 25.5401 5.3242 23.4903 4.33682 21.092C3.34944 18.6937 3.09109 16.0547 3.59446 13.5087C4.09782 10.9626 5.34028 8.62398 7.16472 6.78841C8.98915 4.95284 11.3136 3.70279 13.8442 3.19636C16.3748 2.68993 18.9978 2.94985 21.3815 3.94325C23.7653 4.93666 25.8027 6.61893 27.2361 8.77734C28.6696 10.9357 29.4347 13.4733 29.4347 16.0692C29.4307 19.549 28.0549 22.885 25.6093 25.3456C23.1637 27.8061 19.8479 29.1903 16.3892 29.1943ZM16.3892 4.40251C14.0958 4.40251 11.8538 5.08675 9.94687 6.36871C8.03993 7.65066 6.55365 9.47276 5.67598 11.6046C4.79831 13.7364 4.56867 16.0822 5.0161 18.3453C5.46353 20.6084 6.56794 22.6872 8.18966 24.3189C9.81139 25.9505 11.8776 27.0616 14.127 27.5118C16.3764 27.962 18.7079 27.7309 20.8268 26.8479C22.9457 25.9649 24.7568 24.4695 26.0309 22.5509C27.3051 20.6323 27.9852 18.3767 27.9852 16.0692C27.9816 12.9762 26.7587 10.0108 24.5848 7.82366C22.4109 5.63652 19.4636 4.40617 16.3892 4.40251Z" fill="#2F37BA" fill-opacity="0.5"/>
<path d="M16.3893 43.7777C16.2139 43.7777 16.0444 43.7137 15.9124 43.5976C13.0915 41.0139 10.511 38.1763 8.20325 35.1203C3.05391 28.3259 0.444824 21.9814 0.444824 16.2639C0.444824 12.0094 2.12468 7.9291 5.11484 4.92069C8.10501 1.91228 12.1605 0.222168 16.3893 0.222168C20.618 0.222168 24.6735 1.91228 27.6637 4.92069C30.6539 7.9291 32.3337 12.0094 32.3337 16.2639C32.3337 21.9814 29.7246 28.3259 24.5789 35.1203C22.27 38.1765 19.6883 41.0141 16.8662 43.5976C16.7341 43.7137 16.5647 43.7777 16.3893 43.7777ZM16.3893 1.48582C12.5208 1.51627 8.82218 3.08922 6.10484 5.85964C3.38751 8.63006 1.87328 12.3717 1.89432 16.2639C1.89432 27.8519 13.8331 39.6652 16.3893 42.0613C18.9455 39.6637 30.8842 27.8424 30.8842 16.2639C30.9053 12.3717 29.391 8.63006 26.6737 5.85964C23.9564 3.08922 20.2578 1.51627 16.3893 1.48582Z" fill="#2F37BA" fill-opacity="0.5"/>
<path d="M21.3178 23.3048C21.2004 23.3049 21.0848 23.2764 20.9808 23.2216L16.3895 20.7935L11.7989 23.2216C11.6792 23.2848 11.5443 23.313 11.4095 23.3031C11.2746 23.2932 11.1452 23.2455 11.0359 23.1655C10.9266 23.0855 10.8417 22.9763 10.7908 22.8503C10.74 22.7242 10.7252 22.5864 10.7481 22.4524L11.625 17.3102L7.90994 13.6688C7.81258 13.5738 7.74367 13.4532 7.71104 13.3208C7.67841 13.1883 7.68336 13.0494 7.72534 12.9196C7.76732 12.7899 7.84464 12.6746 7.94851 12.5869C8.05237 12.4991 8.17862 12.4425 8.3129 12.4233L13.4448 11.6738L15.7372 6.99686C15.8038 6.88316 15.8987 6.78892 16.0126 6.72344C16.1265 6.65797 16.2554 6.62353 16.3866 6.62353C16.5178 6.62353 16.6467 6.65797 16.7605 6.72344C16.8744 6.78892 16.9694 6.88316 17.036 6.99686L19.3312 11.6752L24.4661 12.4233C24.5999 12.4429 24.7257 12.4998 24.8291 12.5875C24.9325 12.6752 25.0095 12.7903 25.0512 12.9197C25.093 13.0492 25.098 13.1878 25.0655 13.3199C25.033 13.452 24.9645 13.5724 24.8676 13.6673L21.154 17.3088L22.0309 22.4509C22.0488 22.5555 22.0437 22.6628 22.016 22.7652C21.9884 22.8677 21.9388 22.9628 21.8708 23.044C21.8029 23.1252 21.7181 23.1904 21.6224 23.2352C21.5268 23.28 21.4226 23.3032 21.317 23.3033L21.3178 23.3048ZM16.3895 19.2404C16.5069 19.2403 16.6226 19.269 16.7265 19.3242L20.3546 21.2463L19.6617 17.1826C19.6418 17.0662 19.6504 16.9466 19.6866 16.8342C19.7228 16.7218 19.7857 16.6199 19.8697 16.5373L22.8042 13.6593L18.7493 13.0665C18.633 13.0495 18.5225 13.0043 18.4275 12.9348C18.3324 12.8653 18.2555 12.7736 18.2035 12.6676L16.3895 8.96635L14.5776 12.664C14.5256 12.77 14.4488 12.8617 14.3537 12.9312C14.2586 13.0007 14.1482 13.0458 14.0319 13.0628L9.97692 13.6556L12.9107 16.5337C12.9948 16.6162 13.0576 16.7181 13.0938 16.8305C13.1301 16.9429 13.1386 17.0625 13.1187 17.179L12.4244 21.2463L16.0525 19.3279C16.156 19.2714 16.2717 19.2414 16.3895 19.2404Z" fill="#2F37BA" fill-opacity="0.5"/>
</svg>
