<svg width="50" height="37" viewBox="0 0 50 37" fill="none" xmlns="http://www.w3.org/2000/svg">
<path d="M48.3047 4.06481C48.0916 4.06481 47.8872 4.14812 47.7364 4.29642C47.5857 4.44471 47.501 4.64584 47.501 4.85556V33.3224H43.1369C37.9649 33.3229 32.8097 33.9006 27.7701 35.0446C27.454 35.1158 27.1234 35.0909 26.822 34.9731C26.5206 34.8554 26.2627 34.6503 26.0823 34.3852C28.9518 32.657 32.2506 31.7419 35.6151 31.7409H45.0899C45.3031 31.7409 45.5075 31.6576 45.6582 31.5093C45.809 31.361 45.8936 31.1599 45.8936 30.9502V25.4149C45.8936 25.2052 45.809 25.0041 45.6582 24.8558C45.5075 24.7075 45.3031 24.6242 45.0899 24.6242C44.8768 24.6242 44.6724 24.7075 44.5216 24.8558C44.3709 25.0041 44.2862 25.2052 44.2862 25.4149V30.1594H35.6151C32.1755 30.1562 28.7939 31.0314 25.801 32.6993V11.1815C25.801 10.9718 25.7164 10.7707 25.5656 10.6224C25.4149 10.4741 25.2105 10.3908 24.9973 10.3908C24.7842 10.3908 24.5798 10.4741 24.429 10.6224C24.2783 10.7707 24.1936 10.9718 24.1936 11.1815V32.6985C21.2008 31.0307 17.8192 30.1558 14.3796 30.1594H5.70845V1.69258H18.0855C19.7058 1.69362 21.2595 2.32766 22.4048 3.45532C23.5502 4.58298 24.1936 6.11197 24.1936 7.7062C24.1936 7.91591 24.2783 8.11704 24.429 8.26534C24.5798 8.41363 24.7842 8.49694 24.9973 8.49694C25.2105 8.49694 25.4149 8.41363 25.5656 8.26534C25.7164 8.11704 25.801 7.91591 25.801 7.7062C25.801 6.11197 26.4445 4.58298 27.5898 3.45532C28.7352 2.32766 30.2888 1.69362 31.9092 1.69258H44.2862V22.252C44.2862 22.4617 44.3709 22.6628 44.5216 22.8111C44.6724 22.9594 44.8768 23.0427 45.0899 23.0427C45.3031 23.0427 45.5075 22.9594 45.6582 22.8111C45.809 22.6628 45.8936 22.4617 45.8936 22.252V0.90183C45.8936 0.692111 45.809 0.490982 45.6582 0.342688C45.5075 0.194395 45.3031 0.111084 45.0899 0.111084H31.9092C30.4726 0.112134 29.0648 0.507244 27.8438 1.25204C26.6228 1.99683 25.6371 3.0618 24.9973 4.32734C24.3576 3.0618 23.3719 1.99683 22.1509 1.25204C20.9299 0.507244 19.5221 0.112134 18.0855 0.111084H4.90475C4.69159 0.111084 4.48717 0.194395 4.33644 0.342688C4.18572 0.490982 4.10105 0.692111 4.10105 0.90183V30.9502C4.10105 31.1599 4.18572 31.361 4.33644 31.5093C4.48717 31.6576 4.69159 31.7409 4.90475 31.7409H14.3796C17.7446 31.7416 21.044 32.6567 23.9139 34.3852C23.733 34.6497 23.475 34.8542 23.1738 34.9719C22.8726 35.0896 22.5423 35.1149 22.2262 35.0446C17.1861 33.9004 12.0303 33.3227 6.85775 33.3224H2.49364V4.85556C2.49364 4.64584 2.40896 4.44471 2.25824 4.29642C2.10751 4.14812 1.90309 4.06481 1.68993 4.06481C1.47678 4.06481 1.27235 4.14812 1.12163 4.29642C0.970906 4.44471 0.88623 4.64584 0.88623 4.85556V34.1131C0.88623 34.3229 0.970906 34.524 1.12163 34.6723C1.27235 34.8206 1.47678 34.9039 1.68993 34.9039H6.85775C11.908 34.9047 16.9419 35.4689 21.8629 36.5858C22.4287 36.7143 23.0193 36.6889 23.5715 36.5122C24.1237 36.3356 24.6166 36.0144 24.9973 35.5831C25.378 36.0146 25.8709 36.3359 26.4231 36.5125C26.9753 36.6891 27.566 36.7145 28.1318 36.5858C33.0528 35.4691 38.0867 34.9049 43.1369 34.9039H48.3047C48.5179 34.9039 48.7223 34.8206 48.8731 34.6723C49.0238 34.524 49.1085 34.3229 49.1085 34.1131V4.85556C49.1085 4.64584 49.0238 4.44471 48.8731 4.29642C48.7223 4.14812 48.5179 4.06481 48.3047 4.06481Z" fill="#2F37BA" fill-opacity="0.5"/>
<path d="M22.3636 6.92178C21.0972 6.08967 19.6084 5.6458 18.0855 5.6463H8.92327C8.71011 5.6463 8.50569 5.72961 8.35496 5.87791C8.20424 6.0262 8.11956 6.22733 8.11956 6.43705C8.11956 6.64677 8.20424 6.8479 8.35496 6.99619C8.50569 7.14448 8.71011 7.22779 8.92327 7.22779H18.0855C19.2922 7.22643 20.4722 7.5779 21.4755 8.23757C21.6529 8.35397 21.8699 8.39628 22.079 8.3552C22.288 8.31413 22.4719 8.19302 22.5903 8.01854C22.7086 7.84405 22.7516 7.63048 22.7098 7.42479C22.6681 7.21911 22.545 7.03817 22.3676 6.92178H22.3636Z" fill="#2F37BA" fill-opacity="0.5"/>
<path d="M41.0723 5.64629H31.9101C30.3859 5.6451 28.8956 6.089 27.6279 6.92176C27.5401 6.9794 27.4647 7.05348 27.406 7.13979C27.3473 7.2261 27.3064 7.32294 27.2858 7.42478C27.2651 7.52663 27.265 7.63148 27.2855 7.73335C27.306 7.83523 27.3467 7.93213 27.4053 8.01853C27.4639 8.10492 27.5392 8.17912 27.6269 8.23689C27.7146 8.29465 27.8131 8.33485 27.9166 8.35519C28.0201 8.37553 28.1267 8.37561 28.2302 8.35543C28.3338 8.33525 28.4322 8.2952 28.5201 8.23756C29.5235 7.57811 30.7034 7.22666 31.9101 7.22778H41.0723C41.2855 7.22778 41.4899 7.14447 41.6406 6.99618C41.7913 6.84788 41.876 6.64675 41.876 6.43704C41.876 6.22732 41.7913 6.02619 41.6406 5.87789C41.4899 5.7296 41.2855 5.64629 41.0723 5.64629Z" fill="#2F37BA" fill-opacity="0.5"/>
<path d="M22.3636 10.8755C21.0972 10.0434 19.6084 9.59953 18.0855 9.60003H8.92327C8.71011 9.60003 8.50569 9.68334 8.35496 9.83163C8.20424 9.97993 8.11956 10.1811 8.11956 10.3908C8.11956 10.6005 8.20424 10.8016 8.35496 10.9499C8.50569 11.0982 8.71011 11.1815 8.92327 11.1815H18.0855C19.2922 11.1802 20.4722 11.5316 21.4755 12.1913C21.6529 12.3077 21.8699 12.35 22.079 12.3089C22.288 12.2679 22.4719 12.1468 22.5903 11.9723C22.7086 11.7978 22.7516 11.5842 22.7098 11.3785C22.6681 11.1728 22.545 10.9919 22.3676 10.8755H22.3636Z" fill="#2F37BA" fill-opacity="0.5"/>
<path d="M41.0723 9.60002H31.9101C30.3859 9.59883 28.8956 10.0427 27.6279 10.8755C27.5401 10.9331 27.4647 11.0072 27.406 11.0935C27.3473 11.1798 27.3064 11.2767 27.2858 11.3785C27.2651 11.4804 27.265 11.5852 27.2855 11.6871C27.306 11.789 27.3467 11.8859 27.4053 11.9723C27.4639 12.0587 27.5392 12.1329 27.6269 12.1906C27.7146 12.2484 27.8131 12.2886 27.9166 12.3089C28.0201 12.3293 28.1267 12.3293 28.2302 12.3092C28.3338 12.289 28.4322 12.2489 28.5201 12.1913C29.5235 11.5318 30.7034 11.1804 31.9101 11.1815H41.0723C41.2855 11.1815 41.4899 11.0982 41.6406 10.9499C41.7913 10.8016 41.876 10.6005 41.876 10.3908C41.876 10.181 41.7913 9.97991 41.6406 9.83162C41.4899 9.68333 41.2855 9.60002 41.0723 9.60002Z" fill="#2F37BA" fill-opacity="0.5"/>
<path d="M22.3636 14.8292C21.0972 13.9971 19.6084 13.5533 18.0855 13.5538H8.92327C8.71011 13.5538 8.50569 13.6371 8.35496 13.7854C8.20424 13.9337 8.11956 14.1348 8.11956 14.3445C8.11956 14.5542 8.20424 14.7554 8.35496 14.9036C8.50569 15.0519 8.71011 15.1352 8.92327 15.1352H18.0855C19.2922 15.1339 20.4722 15.4854 21.4755 16.145C21.6529 16.2614 21.8699 16.3037 22.079 16.2627C22.288 16.2216 22.4719 16.1005 22.5903 15.926C22.7086 15.7515 22.7516 15.5379 22.7098 15.3322C22.6681 15.1266 22.545 14.9456 22.3676 14.8292H22.3636Z" fill="#2F37BA" fill-opacity="0.5"/>
<path d="M41.0723 13.5537H31.9101C30.3859 13.5526 28.8956 13.9965 27.6279 14.8292C27.5401 14.8869 27.4647 14.9609 27.406 15.0472C27.3473 15.1336 27.3064 15.2304 27.2858 15.3322C27.2651 15.4341 27.265 15.5389 27.2855 15.6408C27.306 15.7427 27.3467 15.8396 27.4053 15.926C27.4639 16.0124 27.5392 16.0866 27.6269 16.1443C27.7146 16.2021 27.8131 16.2423 27.9166 16.2626C28.0201 16.283 28.1267 16.2831 28.2302 16.2629C28.3338 16.2427 28.4322 16.2027 28.5201 16.145C29.5235 15.4856 30.7034 15.1341 31.9101 15.1352H41.0723C41.2855 15.1352 41.4899 15.0519 41.6406 14.9036C41.7913 14.7553 41.876 14.5542 41.876 14.3445C41.876 14.1348 41.7913 13.9336 41.6406 13.7853C41.4899 13.6371 41.2855 13.5537 41.0723 13.5537Z" fill="#2F37BA" fill-opacity="0.5"/>
<path d="M22.3636 18.783C21.0972 17.9509 19.6084 17.507 18.0855 17.5075H8.92327C8.71011 17.5075 8.50569 17.5908 8.35496 17.7391C8.20424 17.8874 8.11956 18.0885 8.11956 18.2982C8.11956 18.508 8.20424 18.7091 8.35496 18.8574C8.50569 19.0057 8.71011 19.089 8.92327 19.089H18.0855C19.2922 19.0876 20.4722 19.4391 21.4755 20.0988C21.5633 20.1564 21.6618 20.1964 21.7654 20.2166C21.8689 20.2368 21.9755 20.2367 22.079 20.2164C22.1825 20.196 22.2809 20.1558 22.3687 20.0981C22.4564 20.0403 22.5317 19.9661 22.5903 19.8797C22.6488 19.7933 22.6895 19.6964 22.71 19.5945C22.7306 19.4927 22.7305 19.3878 22.7098 19.286C22.6891 19.1841 22.6483 19.0873 22.5896 19.001C22.5309 18.9147 22.4554 18.8406 22.3676 18.783H22.3636Z" fill="#2F37BA" fill-opacity="0.5"/>
<path d="M41.0723 17.5075H31.9101C30.3859 17.5063 28.8956 17.9502 27.6279 18.7829C27.4506 18.8993 27.3275 19.0803 27.2858 19.286C27.244 19.4916 27.287 19.7052 27.4053 19.8797C27.5236 20.0542 27.7075 20.1753 27.9166 20.2164C28.1256 20.2575 28.3427 20.2151 28.5201 20.0987C29.5235 19.4393 30.7034 19.0878 31.9101 19.089H41.0723C41.2855 19.089 41.4899 19.0057 41.6406 18.8574C41.7913 18.7091 41.876 18.5079 41.876 18.2982C41.876 18.0885 41.7913 17.8874 41.6406 17.7391C41.4899 17.5908 41.2855 17.5075 41.0723 17.5075Z" fill="#2F37BA" fill-opacity="0.5"/>
<path d="M22.3636 22.7367C21.0972 21.9046 19.6084 21.4607 18.0855 21.4612H8.92327C8.71011 21.4612 8.50569 21.5445 8.35496 21.6928C8.20424 21.8411 8.11956 22.0422 8.11956 22.252C8.11956 22.4617 8.20424 22.6628 8.35496 22.8111C8.50569 22.9594 8.71011 23.0427 8.92327 23.0427H18.0855C19.2922 23.0413 20.4722 23.3928 21.4755 24.0525C21.6529 24.1689 21.8699 24.2112 22.079 24.1701C22.288 24.129 22.4719 24.0079 22.5903 23.8335C22.7086 23.659 22.7516 23.4454 22.7098 23.2397C22.6681 23.034 22.545 22.8531 22.3676 22.7367H22.3636Z" fill="#2F37BA" fill-opacity="0.5"/>
<path d="M41.0723 21.4612H31.9101C30.3859 21.46 28.8956 21.9039 27.6279 22.7367C27.5401 22.7943 27.4647 22.8684 27.406 22.9547C27.3473 23.041 27.3064 23.1378 27.2858 23.2397C27.2651 23.3415 27.265 23.4464 27.2855 23.5483C27.306 23.6501 27.3467 23.747 27.4053 23.8334C27.5236 24.0079 27.7075 24.129 27.9166 24.1701C28.0201 24.1904 28.1267 24.1905 28.2302 24.1703C28.3338 24.1502 28.4322 24.1101 28.5201 24.0525C29.5235 23.393 30.7034 23.0416 31.9101 23.0427H41.0723C41.2855 23.0427 41.4899 22.9594 41.6406 22.8111C41.7913 22.6628 41.876 22.4617 41.876 22.2519C41.876 22.0422 41.7913 21.8411 41.6406 21.6928C41.4899 21.5445 41.2855 21.4612 41.0723 21.4612Z" fill="#2F37BA" fill-opacity="0.5"/>
<path d="M18.0855 25.4149H8.92327C8.71011 25.4149 8.50569 25.4982 8.35496 25.6465C8.20424 25.7948 8.11956 25.996 8.11956 26.2057C8.11956 26.4154 8.20424 26.6165 8.35496 26.7648C8.50569 26.9131 8.71011 26.9964 8.92327 26.9964H18.0855C19.2922 26.9951 20.4722 27.3465 21.4755 28.0062C21.5633 28.0638 21.6618 28.1039 21.7654 28.1241C21.8689 28.1442 21.9755 28.1442 22.079 28.1238C22.1825 28.1035 22.2809 28.0633 22.3687 28.0055C22.4564 27.9478 22.5317 27.8736 22.5903 27.7872C22.6488 27.7008 22.6895 27.6039 22.71 27.502C22.7306 27.4001 22.7305 27.2953 22.7098 27.1934C22.6891 27.0916 22.6483 26.9947 22.5896 26.9084C22.5309 26.8221 22.4554 26.748 22.3676 26.6904C21.1001 25.8575 19.6097 25.4136 18.0855 25.4149Z" fill="#2F37BA" fill-opacity="0.5"/>
<path d="M41.0723 25.4149H31.9101C30.3859 25.4137 28.8956 25.8576 27.6279 26.6904C27.5401 26.748 27.4647 26.8221 27.406 26.9084C27.3473 26.9947 27.3064 27.0916 27.2858 27.1934C27.2651 27.2953 27.265 27.4001 27.2855 27.502C27.306 27.6039 27.3467 27.7008 27.4053 27.7872C27.4639 27.8736 27.5392 27.9478 27.6269 28.0055C27.7146 28.0633 27.8131 28.1035 27.9166 28.1238C28.0201 28.1442 28.1267 28.1442 28.2302 28.1241C28.3338 28.1039 28.4322 28.0638 28.5201 28.0062C29.5235 27.3467 30.7034 26.9953 31.9101 26.9964H41.0723C41.2855 26.9964 41.4899 26.9131 41.6406 26.7648C41.7913 26.6165 41.876 26.4154 41.876 26.2057C41.876 25.996 41.7913 25.7948 41.6406 25.6465C41.4899 25.4982 41.2855 25.4149 41.0723 25.4149Z" fill="#2F37BA" fill-opacity="0.5"/>
</svg>
