<svg width="45" height="44" viewBox="0 0 45 44" fill="none" xmlns="http://www.w3.org/2000/svg">
<path d="M42.633 38.8602H41.9179V38.1577H40.4878C40.4878 36.6079 39.2051 35.3476 37.6276 35.3476H27.6169V10.4689L22.1925 5.13974H19.2478L19.8906 3.61467L18.5694 3.07647L16.9274 6.97045L18.2489 7.50865L18.655 6.54476H21.1814V11.4623H26.1868V35.3476H25.4717C24.683 35.3476 24.0416 34.7175 24.0416 33.9426H22.6115C22.6115 35.4924 23.8943 36.7526 25.4717 36.7526H37.6276C38.4163 36.7526 39.0577 37.3828 39.0577 38.1577H15.978L12.4028 40.2652H1.87493V5.84225H9.10996L9.8128 7.50934L11.1343 6.97114L9.49228 3.07715L8.17111 3.61536L8.51781 4.43724H0.444824V41.6702H12.4028L15.978 43.7777H41.9179V43.0752H42.633C43.8156 43.0752 44.7782 42.1295 44.7782 40.9677C44.7782 39.8059 43.8156 38.8602 42.633 38.8602ZM22.6115 7.53815L25.1756 10.0573H22.6115V7.53815ZM16.8911 39.5627H37.6276V42.3727H16.8911V39.5627ZM15.461 40.1009V41.8345L13.9907 40.9677L15.461 40.1009ZM40.4878 42.3727H39.0577V39.5627H40.4878V42.3727ZM42.633 41.6702H41.9179V40.2652H42.633C43.0268 40.2652 43.3481 40.5801 43.3481 40.9677C43.3481 41.3553 43.0268 41.6702 42.633 41.6702Z" fill="#2F37BA" fill-opacity="0.5"/>
<path d="M6.20446 14.9032C5.92688 17.6865 7.14017 20.3209 9.44839 21.9502C9.63169 22.0792 9.74097 22.2895 9.74097 22.5121V24.1075C9.74097 26.4321 11.6651 28.3225 14.0313 28.3225C16.3975 28.3225 18.3216 26.4321 18.3216 24.1075V22.5121C18.3216 22.2895 18.4281 22.0816 18.6076 21.9557C20.6668 20.5051 21.8969 18.1578 21.8969 15.6774C21.8969 13.4827 20.9416 11.3838 19.2762 9.91907C17.6128 8.45574 15.3762 7.75803 13.1368 7.99883C9.47841 8.39571 6.56268 11.3001 6.20446 14.9032ZM11.1711 22.7025H16.8915V24.1075H11.1711V22.7025ZM11.8861 18.4874H11.5286C11.3313 18.4874 11.1711 18.33 11.1711 18.1362C11.1711 17.9424 11.3313 17.7849 11.5286 17.7849C11.7259 17.7849 11.8861 17.9424 11.8861 18.1362V18.4874ZM14.7463 21.2974H13.3162V19.8924H14.7463V21.2974ZM14.0313 26.9175C12.9772 26.9175 12.0649 26.3484 11.5688 25.5125H16.4931C15.9977 26.3484 15.0854 26.9175 14.0313 26.9175ZM13.2942 9.39562C13.5442 9.36818 13.7932 9.3548 14.04 9.3548C15.6279 9.3548 17.1268 9.91392 18.3223 10.9656C19.6854 12.1641 20.4668 13.8817 20.4668 15.6774C20.4668 17.7064 19.4598 19.6262 17.7745 20.8134C17.586 20.9462 17.4341 21.1156 17.3021 21.2974H16.1765V19.8924H16.534C17.5193 19.8924 18.3216 19.1042 18.3216 18.1362C18.3216 17.1681 17.5193 16.3799 16.534 16.3799C15.5487 16.3799 14.7463 17.1681 14.7463 18.1362V18.4874H13.3162V18.1362C13.3162 17.1681 12.5139 16.3799 11.5286 16.3799C10.5433 16.3799 9.74097 17.1681 9.74097 18.1362C9.74097 19.1042 10.5433 19.8924 11.5286 19.8924H11.8861V21.2974H10.7591C10.6254 21.1139 10.4731 20.9441 10.2821 20.8093C8.39221 19.476 7.39994 17.3191 7.62723 15.04C7.92052 12.0938 10.3038 9.72012 13.2942 9.39562ZM16.1765 18.4874V18.1362C16.1765 17.9424 16.3367 17.7849 16.534 17.7849C16.7312 17.7849 16.8915 17.9424 16.8915 18.1362C16.8915 18.33 16.7312 18.4874 16.534 18.4874H16.1765Z" fill="#2F37BA" fill-opacity="0.5"/>
<path d="M17.606 15.6774H19.0361C19.0361 14.2802 18.4275 12.9445 17.3679 12.0125L16.414 13.0591C17.172 13.7252 17.606 14.6799 17.606 15.6774Z" fill="#2F37BA" fill-opacity="0.5"/>
<path d="M15.699 11.0394C15.1641 10.8538 14.6034 10.7598 14.0308 10.7598V12.1648C14.4407 12.1648 14.8408 12.2324 15.2228 12.3645L15.699 11.0394Z" fill="#2F37BA" fill-opacity="0.5"/>
<path d="M13.3159 0.222168H14.746V6.54475H13.3159V0.222168Z" fill="#2F37BA" fill-opacity="0.5"/>
<path d="M7.07649 1.01901L8.39766 0.481147L8.94512 1.7788L7.62395 2.31666L7.07649 1.01901Z" fill="#2F37BA" fill-opacity="0.5"/>
<path d="M19.1161 1.77915L19.6636 0.481494L20.9847 1.01901L20.4373 2.317L19.1161 1.77915Z" fill="#2F37BA" fill-opacity="0.5"/>
<path d="M3.30506 29.7275H4.73516V31.1325H3.30506V29.7275Z" fill="#2F37BA" fill-opacity="0.5"/>
<path d="M6.16529 29.7275H20.4664V31.1325H6.16529V29.7275Z" fill="#2F37BA" fill-opacity="0.5"/>
<path d="M3.30506 32.5376H4.73516V33.9426H3.30506V32.5376Z" fill="#2F37BA" fill-opacity="0.5"/>
<path d="M6.16529 32.5376H20.4664V33.9426H6.16529V32.5376Z" fill="#2F37BA" fill-opacity="0.5"/>
<path d="M3.30506 35.3476H4.73516V36.7526H3.30506V35.3476Z" fill="#2F37BA" fill-opacity="0.5"/>
<path d="M6.16529 35.3476H20.4664V36.7526H6.16529V35.3476Z" fill="#2F37BA" fill-opacity="0.5"/>
</svg>
