<svg width="31" height="30" viewBox="0 0 31 30" fill="none" xmlns="http://www.w3.org/2000/svg">
<path d="M22.8291 13.4766C23.4745 13.4766 23.9976 12.9519 23.9976 12.3047C23.9976 11.6575 23.4745 11.1328 22.8291 11.1328C22.1838 11.1328 21.6606 11.6575 21.6606 12.3047C21.6606 12.9519 22.1838 13.4766 22.8291 13.4766Z" fill="#2F37BA"/>
<path d="M25.5168 2.34375H23.9977V1.17188C23.9977 0.524648 23.4745 0 22.8291 0C22.1838 0 21.6606 0.524648 21.6606 1.17188V2.34375H16.3438V1.17188C16.3438 0.524648 15.8206 0 15.1752 0C14.5298 0 14.0067 0.524648 14.0067 1.17188V2.34375H8.74826V1.17188C8.74826 0.524648 8.22511 0 7.57972 0C6.93434 0 6.41119 0.524648 6.41119 1.17188V2.34375H4.95052C2.37319 2.34375 0.276367 4.44656 0.276367 7.03125V25.3125C0.276367 27.8972 2.37319 30 4.95052 30H13.8898C14.5352 30 15.0584 29.4754 15.0584 28.8281C15.0584 28.1809 14.5352 27.6562 13.8898 27.6562H4.95052C3.66185 27.6562 2.61344 26.6048 2.61344 25.3125V7.03125C2.61344 5.73891 3.66185 4.6875 4.95052 4.6875H6.41119V5.85938C6.41119 6.5066 6.93434 7.03125 7.57972 7.03125C8.22511 7.03125 8.74826 6.5066 8.74826 5.85938V4.6875H14.0067V5.85938C14.0067 6.5066 14.5298 7.03125 15.1752 7.03125C15.8206 7.03125 16.3438 6.5066 16.3438 5.85938V4.6875H21.6606V5.85938C21.6606 6.5066 22.1838 7.03125 22.8291 7.03125C23.4745 7.03125 23.9977 6.5066 23.9977 5.85938V4.6875H25.5168C26.8054 4.6875 27.8538 5.73891 27.8538 7.03125V13.7109C27.8538 14.3582 28.377 14.8828 29.0224 14.8828C29.6678 14.8828 30.1909 14.3582 30.1909 13.7109V7.03125C30.1909 4.44656 28.0941 2.34375 25.5168 2.34375Z" fill="#2F37BA"/>
<path d="M23.1212 15.8203C19.2229 15.8203 16.0515 19.0008 16.0515 22.9102C16.0515 26.8195 19.2229 30 23.1212 30C27.0195 30 30.1909 26.8195 30.1909 22.9102C30.1909 19.0008 27.0195 15.8203 23.1212 15.8203ZM23.1212 27.6562C20.5117 27.6562 18.3886 25.5272 18.3886 22.9102C18.3886 20.2931 20.5117 18.1641 23.1212 18.1641C25.7308 18.1641 27.8538 20.2931 27.8538 22.9102C27.8538 25.5272 25.7308 27.6562 23.1212 27.6562Z" fill="#2F37BA"/>
<path d="M24.8156 21.7383H24.2898V20.5078C24.2898 19.8606 23.7666 19.3359 23.1213 19.3359C22.4759 19.3359 21.9528 19.8606 21.9528 20.5078V22.9102C21.9528 23.5574 22.4759 24.082 23.1213 24.082H24.8156C25.461 24.082 25.9841 23.5574 25.9841 22.9102C25.9841 22.2629 25.461 21.7383 24.8156 21.7383Z" fill="#2F37BA"/>
<path d="M17.746 13.4766C18.3914 13.4766 18.9146 12.9519 18.9146 12.3047C18.9146 11.6575 18.3914 11.1328 17.746 11.1328C17.1006 11.1328 16.5774 11.6575 16.5774 12.3047C16.5774 12.9519 17.1006 13.4766 17.746 13.4766Z" fill="#2F37BA"/>
<path d="M12.6628 18.5742C13.3081 18.5742 13.8313 18.0496 13.8313 17.4023C13.8313 16.7551 13.3081 16.2305 12.6628 16.2305C12.0175 16.2305 11.4943 16.7551 11.4943 17.4023C11.4943 18.0496 12.0175 18.5742 12.6628 18.5742Z" fill="#2F37BA"/>
<path d="M7.57971 13.4766C8.2251 13.4766 8.74829 12.9519 8.74829 12.3047C8.74829 11.6575 8.2251 11.1328 7.57971 11.1328C6.93432 11.1328 6.41113 11.6575 6.41113 12.3047C6.41113 12.9519 6.93432 13.4766 7.57971 13.4766Z" fill="#2F37BA"/>
<path d="M7.57971 18.5742C8.2251 18.5742 8.74829 18.0496 8.74829 17.4023C8.74829 16.7551 8.2251 16.2305 7.57971 16.2305C6.93432 16.2305 6.41113 16.7551 6.41113 17.4023C6.41113 18.0496 6.93432 18.5742 7.57971 18.5742Z" fill="#2F37BA"/>
<path d="M7.57971 23.6719C8.2251 23.6719 8.74829 23.1472 8.74829 22.5C8.74829 21.8528 8.2251 21.3281 7.57971 21.3281C6.93432 21.3281 6.41113 21.8528 6.41113 22.5C6.41113 23.1472 6.93432 23.6719 7.57971 23.6719Z" fill="#2F37BA"/>
<path d="M12.6628 23.6719C13.3081 23.6719 13.8313 23.1472 13.8313 22.5C13.8313 21.8528 13.3081 21.3281 12.6628 21.3281C12.0175 21.3281 11.4943 21.8528 11.4943 22.5C11.4943 23.1472 12.0175 23.6719 12.6628 23.6719Z" fill="#2F37BA"/>
<path d="M12.6628 13.4766C13.3081 13.4766 13.8313 12.9519 13.8313 12.3047C13.8313 11.6575 13.3081 11.1328 12.6628 11.1328C12.0175 11.1328 11.4943 11.6575 11.4943 12.3047C11.4943 12.9519 12.0175 13.4766 12.6628 13.4766Z" fill="#2F37BA"/>
</svg>
