<svg fill="none" width="320" height="800" viewBox="0 0 320 800" id="arrow-1-mob" xmlns="http://www.w3.org/2000/svg">
        <path d="M156 374.5l-.6-.8.6.8zm35.2 413.1c.4.5 1 .5 1.4.2l7-5.8a1 1 0 00-1.3-1.5l-6.2 5-5-6a1 1 0 00-1.6 1.2l5.7 7zm4-779.5l5.3 8.1 1.7-1-5.4-8.2-1.6 1zm13.2 20.7l9.9 17 1.7-1c-3.3-6-6.7-11.8-10-17l-1.6 1zm16.8 30c3 5.6 5.8 11.5 8.5 17.7l1.8-.8c-2.7-6.2-5.6-12.2-8.5-17.9l-1.8 1zM239.4 90c2.3 6 4.5 12.2 6.5 18.5l2-.6c-2-6.4-4.3-12.6-6.7-18.6l-1.8.7zm10.6 32.7c1.7 6.2 3 12.6 4.2 19.1l2-.3c-1.2-6.6-2.6-13-4.2-19.3l-2 .5zm6.4 33.7c.7 6.4 1.2 13 1.4 19.5h2c-.2-6.7-.7-13.3-1.4-19.7l-2 .2zm1.3 34.3c-.3 6.4-.9 13-1.8 19.5l2 .3c1-6.7 1.5-13.3 1.8-19.8h-2zm-4.3 34c-1.3 6.2-3 12.6-5 19l2 .5c2-6.4 3.6-12.8 5-19.1l-2-.4zm-9.8 32.8c-2.3 6-5 12-8 18l1.9.9c3-6 5.6-12.1 8-18.2l-1.9-.7zm-14.8 31c-3.2 5.5-6.6 11-10.4 16.6l1.6 1.1c3.8-5.6 7.3-11.1 10.5-16.7l-1.7-1zm-19 28.6c-3.9 5-8 10.2-12.4 15.3l1.5 1.3c4.5-5.1 8.6-10.3 12.5-15.4l-1.6-1.2zm-22.2 26.2c-4.4 4.6-9 9.3-13.9 13.9l1.4 1.4c4.9-4.6 9.5-9.3 14-14l-1.5-1.3zm-24.7 23.8a428 428 0 01-7.5 6.5l1.2 1.6 7.6-6.6-1.3-1.5zm-7.5 6.5l-7.8 6.8 1.4 1.5c2.4-2.3 5-4.5 7.6-6.7l-1.2-1.6zM136.8 391c-4.8 5-9.3 10-13.3 15l1.5 1.3c4-5 8.5-10 13.3-15l-1.5-1.3zm-22.3 27.2c-4 5.7-7.4 11.5-10.4 17.3l1.7 1c3-5.8 6.5-11.5 10.3-17.2l-1.6-1.1zm-16.8 31a156 156 0 00-6.4 19.2l1.9.5c1.7-6.3 3.8-12.6 6.3-18.9l-1.8-.7zm-9.6 34c-1.1 6.7-1.8 13.4-2 20.1l2 .1c.2-6.6.9-13.2 2-19.8l-2-.4zm-2 35.3c.4 6.7 1 13.4 2 20l2-.2c-1-6.6-1.7-13.3-2-20l-2 .2zm4.7 35c1.4 6.5 3.1 13 5 19.5l2-.6c-2-6.4-3.6-12.9-5-19.4l-2 .4zm9.7 33.8c2.2 6.4 4.6 12.6 7.2 18.9l1.9-.8c-2.6-6.2-5-12.4-7.2-18.7l-1.9.6zm13.2 32.7a553 553 0 008.7 18.2l1.8-1c-3-5.9-5.9-12-8.7-18l-1.8.8zm15.5 31.6l9.6 17.7 1.7-1c-3.2-5.7-6.4-11.6-9.5-17.6l-1.8 1zm17 31L156 700l1.7-1-9.8-17.5-1.8 1zm17.2 30.5c3.4 6.1 6.6 12 9.5 17.7l1.8-.9-9.6-17.8-1.7 1zm16.2 31.1a177 177 0 017.5 18.5l2-.6a179 179 0 00-7.7-18.7l-1.8.8zm11.1 33c.5 3.5.6 6.7.3 9.7l2 .2a44 44 0 00-.3-10.2l-2 .3zM156 374.5l-1.3-1.5 1.3 1.5zm34.5 413.8c.7.8 2 1 2.8.2l13.9-11.4a2 2 0 00-2.6-3l-12.3 10-10.2-12.3a2 2 0 00-3 2.6l11.4 13.9zm3.8-779.7l5.4 8.2 3.3-2.2-5.3-8.2-3.4 2.2zm13.2 20.7c3.3 5.3 6.6 11 10 17l3.4-2c-3.4-6-6.7-11.8-10-17.1l-3.4 2zm16.8 30c3 5.6 5.8 11.5 8.5 17.6l3.6-1.6c-2.7-6.2-5.6-12.2-8.5-18l-3.6 2zm14.2 31.2c2.3 6 4.5 12 6.5 18.4l3.8-1.2c-2-6.4-4.3-12.6-6.6-18.7l-3.7 1.5zM249 123c1.6 6.2 3 12.6 4.2 19.1l3.9-.7a257 257 0 00-4.3-19.4l-3.8 1zm6.3 33.6a222 222 0 011.4 19.5l4-.1c-.2-6.7-.7-13.4-1.4-19.8l-4 .4zm1.3 34.1a207 207 0 01-1.8 19.5l4 .5c1-6.7 1.5-13.3 1.8-19.8l-4-.2zm-4.3 33.9c-1.3 6.2-3 12.5-4.9 18.8l3.8 1.2c2-6.4 3.7-12.9 5-19.2l-3.9-.8zm-9.7 32.6c-2.3 6-5 12-8 18l3.7 1.7c3-6 5.6-12.2 8-18.2l-3.7-1.5zm-14.8 30.9c-3.1 5.5-6.6 11-10.3 16.6l3.3 2.2c3.8-5.6 7.3-11.2 10.5-16.8l-3.5-2zm-19 28.5c-3.7 5-7.8 10.1-12.2 15.2l3 2.6c4.4-5.1 8.6-10.2 12.5-15.4l-3.2-2.4zm-22 26c-4.4 4.7-9 9.3-13.9 14l2.8 2.9c4.9-4.7 9.5-9.4 14-14l-3-2.8zm-24.7 23.9a434 434 0 01-7.5 6.5l2.6 3 7.6-6.5-2.7-3zm-7.5 6.5a272 272 0 00-7.7 6.8l2.7 3c2.4-2.3 5-4.5 7.6-6.8l-2.6-3zM136 390.3c-4.9 5-9.3 10-13.4 15.2l3 2.5c4.1-5 8.5-10 13.3-15l-2.9-2.7zm-22.5 27.3c-3.9 5.8-7.4 11.6-10.4 17.5l3.5 1.8a171 171 0 0110.3-17l-3.4-2.3zM96.8 449c-2.7 6.4-4.8 12.8-6.5 19.3l3.9 1c1.6-6.3 3.7-12.6 6.3-18.8l-3.7-1.5zM87 483c-1 6.7-1.7 13.5-2 20.2l4 .1c.2-6.5.9-13.1 2-19.7l-4-.6zm-2 35.4c.4 6.8 1 13.5 2 20.2l4-.6c-1-6.6-1.7-13.2-2-19.8l-4 .2zm4.7 35.2c1.5 6.5 3.2 13 5 19.5l4-1.1c-2-6.4-3.6-12.8-5-19.3l-4 .9zm9.8 34c2.2 6.3 4.6 12.6 7.2 18.8l3.7-1.5c-2.6-6.2-5-12.4-7.2-18.7l-3.7 1.4zm13.2 32.7a553 553 0 008.7 18.2l3.5-1.8c-3-6-5.8-12-8.6-18l-3.6 1.6zm15.5 31.7l9.6 17.7 3.5-1.9a981 981 0 01-9.5-17.7l-3.6 1.9zm17 31l9.8 17.4 3.5-2-9.9-17.4-3.4 2zm17.2 30.5c3.4 6.1 6.6 12 9.5 17.7l3.6-1.9-9.6-17.8-3.5 2zm16.2 31a176 176 0 017.5 18.4l3.8-1.2c-2-6-4.6-12.2-7.7-18.8l-3.6 1.7zm11 32.7c.5 3.4.6 6.6.3 9.5l4 .4a45 45 0 00-.3-10.4l-4 .5z" fill="#FF4D50"></path>
    </svg>