<svg width="20" height="20" viewBox="0 0 20 20" fill="none" xmlns="http://www.w3.org/2000/svg">
<path d="M11.2554 5.021H8.11738C7.79378 5.021 7.53144 5.28334 7.53144 5.60693V10.0418H6.86218C6.53859 10.0418 6.27625 10.3042 6.27625 10.6278C6.27625 10.9513 6.53859 11.2137 6.86218 11.2137H7.53144V12.5522H6.86218C6.53859 12.5522 6.27625 12.8146 6.27625 13.1382C6.27625 13.4618 6.53859 13.7241 6.86218 13.7241H7.53144V15.021C7.53144 15.3446 7.79378 15.6069 8.11738 15.6069C8.44097 15.6069 8.70331 15.3446 8.70331 15.021V13.7241H11.2554C11.579 13.7241 11.8414 13.4618 11.8414 13.1382C11.8414 12.8146 11.579 12.5522 11.2554 12.5522H8.70331V11.2137H11.2554C12.9628 11.2137 14.3518 9.82467 14.3518 8.11732C14.3517 6.36779 12.9266 5.021 11.2554 5.021ZM11.2554 10.0418H8.70331V6.19287H11.2554C12.3102 6.19287 13.1799 7.04365 13.1799 8.11736C13.1799 9.17853 12.3166 10.0418 11.2554 10.0418Z" fill="#444DD8"/>
<path d="M10 0C4.48598 0 0 4.48598 0 10C0 15.514 4.48598 20 10 20C15.514 20 20 15.514 20 10C20 4.48598 15.514 0 10 0ZM10 18.8281C5.13215 18.8281 1.17188 14.8679 1.17188 10C1.17188 5.13215 5.13215 1.17188 10 1.17188C14.8679 1.17188 18.8281 5.13215 18.8281 10C18.8281 14.8679 14.8679 18.8281 10 18.8281Z" fill="#444DD8"/>
</svg>
